<svg xmlns="http://www.w3.org/2000/svg" viewBox="0 0 163 37.65"><g id="Layer_1" data-name="Layer 1"><path d="M160.53,17.68l-2.44-7.11-2.44,7.11ZM158.87,10,163,21.64h-1l-1.12-3.07h-5.52l-1.1,3.07h-1L157.32,10Z" fill="#fff"/><path d="M144.28,18.31c0,1.67.82,2.58,3.1,2.58s3.09-.91,3.09-2.58v-5c0-1.67-.81-2.58-3.09-2.58s-3.1.91-3.1,2.58Zm7.24,0c0,2-1.1,3.47-4.14,3.47s-4.15-1.48-4.15-3.47V13.26c0-2,1.1-3.47,4.15-3.47s4.14,1.48,4.14,3.47Z" fill="#fff"/><path d="M133.66,10h4.45c1.6,0,2.54.75,2.54,2.29v1.41a1.82,1.82,0,0,1-1.35,1.89A2,2,0,0,1,141,17.73v1.53c0,1.61-1.19,2.38-2.72,2.38h-4.64Zm1.05,5.24h3.06c1.3,0,1.83-.67,1.83-1.59v-1.5c0-.8-.46-1.24-1.48-1.24h-3.41Zm3.31.91h-3.31v4.61h3.61c1.12,0,1.65-.54,1.65-1.47V17.77C140,16.79,139.39,16.12,138,16.12Z" fill="#fff"/><path d="M127.54,15.33c3.11.77,3.29,1.21,3.29,3.42,0,1.91-.66,3.07-3.67,3.07a9.94,9.94,0,0,1-3.34-.57l.19-.84a11.23,11.23,0,0,0,3.19.48c2,0,2.58-.6,2.58-2.09,0-1.8,0-2-2.65-2.59-2.87-.65-3.19-1.16-3.19-3.51,0-1.91.71-2.9,3.69-2.9a12.33,12.33,0,0,1,3.06.4l-.13.87a14.56,14.56,0,0,0-2.9-.35c-2.35,0-2.67.56-2.67,2C125,14.63,125.05,14.72,127.54,15.33Z" fill="#fff"/><rect x="119.85" y="9.97" width="1.05" height="11.67" fill="#fff"/><polygon points="117.46 20.71 117.46 21.64 111.08 21.64 111.08 9.97 112.13 9.97 112.13 20.71 117.46 20.71" fill="#fff"/><path d="M102.78,18.1V13.51c0-1.1-.57-1.77-2.24-1.77s-2.24.67-2.24,1.77V18.1c0,1.1.57,1.77,2.24,1.77S102.78,19.2,102.78,18.1ZM105,13.39v4.83c0,2-1.14,3.6-4.49,3.6s-4.48-1.65-4.48-3.6V13.39c0-2,1.14-3.6,4.48-3.6S105,11.44,105,13.39Z" fill="#fff"/><path d="M91.57,11.79c-1.54,0-2,.53-2,1.77v4.49c0,1.24.5,1.77,2,1.77a17.43,17.43,0,0,0,2.91-.3l.24,1.91a13.27,13.27,0,0,1-3.22.39c-3,0-4.21-1.25-4.21-3.39V13.18c0-2.14,1.26-3.39,4.21-3.39a13.27,13.27,0,0,1,3.22.39l-.24,1.91A17.43,17.43,0,0,0,91.57,11.79Z" fill="#fff"/><rect x="82.82" y="9.97" width="2.24" height="11.67" fill="#fff"/><polygon points="78.14 18.84 78.14 9.97 80.33 9.97 80.33 21.64 77.34 21.64 72.84 12.79 72.84 21.64 70.65 21.64 70.65 9.97 73.64 9.97 78.14 18.84" fill="#fff"/><path d="M65.63,11.79c-1.55,0-2,.53-2,1.77v4.49c0,1.24.5,1.77,2,1.77a17.21,17.21,0,0,0,2.9-.3l.25,1.91a13.4,13.4,0,0,1-3.22.39c-3,0-4.22-1.25-4.22-3.39V13.18c0-2.14,1.27-3.39,4.22-3.39a13.4,13.4,0,0,1,3.22.39l-.25,1.91A17.21,17.21,0,0,0,65.63,11.79Z" fill="#fff"/><path d="M57.14,6.46,58,7.76a16.69,16.69,0,0,1-2.42,1.46L54.78,8A24.74,24.74,0,0,0,57.14,6.46Z" fill="#fff"/><polygon points="52.3 9.97 59.56 9.97 59.56 11.91 54.54 11.91 54.54 14.74 59.17 14.74 59.17 16.68 54.54 16.68 54.54 19.7 59.56 19.7 59.56 21.64 52.3 21.64 52.3 9.97" fill="#fff"/><polygon points="47.48 11.91 47.48 21.64 45.24 21.64 45.24 11.91 41.93 11.91 41.93 9.97 50.79 9.97 50.79 11.91 47.48 11.91" fill="#fff"/><path d="M19.75,11.89v9.74h2.81V11.89h1.29v-2H18.46v2Zm-8.42,9.73V9.93H8.53V21.62ZM14.14,6.83V24.74c0,2,0,2.94-1.4,2.94A1.15,1.15,0,0,1,11.55,27a4.52,4.52,0,0,1-.22-1.74,1.4,1.4,0,1,0-2.8,0h0c0,2,1.9,3,4.22,3s4.2-1.2,4.2-3.52V6.83c0-2,0-2.94,1.4-2.94a1.15,1.15,0,0,1,1.19.66,4.57,4.57,0,0,1,.22,1.74,1.4,1.4,0,0,0,2.8,0c0-2-1.89-3-4.21-3S14.14,4.51,14.14,6.83ZM31.13,0V15.8c0,14.23-15.59,21.85-15.59,21.85S0,30,0,15.8V0Z" fill="#fff"/></g></svg>