<?xml version="1.0" standalone="no"?>
<!DOCTYPE svg PUBLIC "-//W3C//DTD SVG 20010904//EN"
 "http://www.w3.org/TR/2001/REC-SVG-20010904/DTD/svg10.dtd">
<svg version="1.0" xmlns="http://www.w3.org/2000/svg"
 width="500.000000pt" height="500.000000pt" viewBox="0 0 500.000000 500.000000"
 preserveAspectRatio="xMidYMid meet">
<metadata>
Created by potrace 1.11, written by Peter Selinger 2001-2013
</metadata>
<g transform="translate(0.000000,500.000000) scale(0.100000,-0.100000)"
fill="#000000" stroke="none">
<path d="M444 3828 c5 -1153 6 -1228 16 -1228 3 0 5 -12 6 -27 0 -16 4 -48 8
-73 5 -25 10 -56 11 -70 1 -14 5 -32 8 -40 3 -8 15 -57 26 -108 12 -51 28
-110 35 -130 8 -20 17 -50 21 -67 4 -16 12 -43 19 -60 7 -16 33 -77 57 -135
79 -191 240 -476 342 -605 4 -5 35 -46 68 -90 127 -167 329 -384 490 -525 34
-30 67 -60 73 -65 36 -35 196 -163 281 -225 55 -41 102 -78 103 -82 2 -4 8 -8
13 -8 9 0 66 -37 79 -50 13 -15 244 -155 342 -209 l58 -32 37 19 c62 30 228
129 341 205 100 66 281 194 292 207 3 3 25 21 50 40 25 19 47 37 50 40 3 3 26
22 52 43 26 21 53 43 60 50 7 7 51 46 98 87 47 41 88 79 91 83 3 4 48 52 100
105 52 53 122 129 154 167 33 39 63 72 66 75 6 6 137 178 157 206 185 270 322
545 408 819 16 50 29 92 29 95 1 3 4 21 8 40 4 19 7 37 6 40 0 3 5 18 11 34 6
16 13 45 15 65 3 20 7 47 10 61 7 38 17 101 23 155 3 28 7 571 9 1208 l4 1157
-2066 0 -2066 0 5 -1172z"/>
</g>
</svg>
